<?xml version="1.0" encoding="UTF-8"?>
<svg width="1019px" height="229px" viewBox="0 0 1019 229" version="1.1" xmlns="http://www.w3.org/2000/svg" xmlns:xlink="http://www.w3.org/1999/xlink">
    <!-- Generator: Sketch 52.6 (67491) - http://www.bohemiancoding.com/sketch -->
    <title>logo</title>
    <desc>Created with Sketch.</desc>
    <g id="Page-1" stroke="none" stroke-width="1" fill="none" fill-rule="evenodd">
        <g id="logo" transform="translate(1.000000, 1.000000)">
            <g id="Group" transform="translate(260.000000, 68.000000)" fill-rule="nonzero">
                <path d="M634.301398,48.4 L625.401398,48 C625.401398,48 623.001398,33.7 624.001398,29.2 L666.201398,29.6 C666.201398,29.6 667.201398,45.7 666.901398,48.1 L659.401398,48.4 L666.901398,65.6 L683.801398,35.7 L696.601398,36.1 L715.401398,65.9 L722.201398,48.8 L714.201398,48.4 L714.301398,29.6 C715.001398,28.9 756.201398,29.3 756.101398,29.3 C756.101398,29.3 757.201398,39 757.101398,48.1 L748.601398,48.7 C748.601398,48.7 734.601398,88.7 726.001398,101.5 C726.001398,101.5 714.601398,102.5 708.601398,101.1 L689.401398,70.3 L672.301398,101.5 C672.301398,101.5 659.501398,102.5 653.501398,101.1 C653.601398,101.1 636.401398,60 634.301398,48.4 Z M588.701398,28.2 C608.701398,28.2 623.301398,41.6 623.301398,65.3 C623.301398,84.8 612.901398,103.4 588.901398,103.4 C567.401398,103.4 552.201398,92.2 552.201398,65 C552.101398,38 568.601398,28.2 588.701398,28.2 Z M589.201398,79.3 C594.701398,79.3 598.901398,75.1 598.901398,66 C598.901398,58.8 596.101398,51.5 589.201398,51.5 C580.601398,51.5 577.801398,58.6 577.801398,66 C577.801398,74.5 584.001398,79.3 589.201398,79.3 Z M507.901398,2.4 C518.601398,2.4 524.601398,8.3 524.601398,8.3 L526.201398,0 C526.201398,0.3 542.301398,0.6 548.401398,4.4 C549.401398,5.1 547.701398,39.6 547.701398,39.6 L525.001398,42.4 C525.001398,42.4 522.201398,27.9 509.501398,27.9 C502.201398,27.9 495.901398,35.7 495.901398,51.3 C495.901398,68 505.901398,73.7 513.001398,73.7 C522.001398,73.7 528.801398,66.1 530.201398,64.1 C536.601398,70.7 548.701398,81.6 548.701398,81.6 C548.701398,81.6 539.801398,102.5 513.001398,102.5 C491.001398,102.5 467.001398,85.4 467.001398,51.3 C466.801398,15.5 488.101398,2.4 507.901398,2.4 Z" id="Shape" fill="#dcdcdc"></path>
                <path d="M396.806979,92.3 C396.806979,92.3 377.006979,59.8 374.906979,48.3 L367.106979,47.9 C367.106979,47.9 364.706979,34.1 365.706979,29.5 L407.906979,29.4 C407.906979,29.4 408.906979,45.6 408.606979,48 L400.706979,48.3 L411.406979,68.2 L421.706979,48.7 L414.606979,48.3 L414.306979,29.9 C415.006979,29.2 455.006979,30.5 454.806979,30.5 C454.806979,30.5 455.906979,39.5 455.806979,48.6 L448.006979,49 C448.006979,49 409.706979,124.4 401.106979,137.2 C401.106979,137.2 381.306979,133.2 376.706979,125.2 C375.906979,125.1 397.406979,92.5 396.806979,92.3 Z M201.406979,113.2 L201.306979,54.3 L190.906979,54.3 C190.806979,45.3 189.906979,33.4 189.906979,33.4 C189.806979,33.4 221.106979,28.3 221.806979,29 C222.106979,29.8 224.806979,35.2 224.806979,35.2 C224.806979,35.2 228.906979,29 243.306979,29 C256.306979,29 275.606979,37.5 275.606979,66.6 C275.606979,96 258.506979,102.7 244.106979,102.7 C232.106979,102.7 227.706979,98.2 227.706979,98.2 L227.706979,112.2 C227.706979,112.2 241.406979,113.8 242.006979,114.2 C242.806979,114.9 242.406979,133.3 242.606979,133.3 C242.906979,133.3 191.406979,133.6 191.606979,133.3 L190.806979,114.1 L201.406979,113.2 Z M240.306979,80.9 C247.106979,80.9 250.206979,75.5 250.206979,66.1 C250.206979,56.8 246.406979,51.8 240.906979,51.8 C234.806979,51.8 231.006979,57 231.006979,65.9 C230.906979,74.4 234.806979,80.9 240.306979,80.9 Z M291.206979,113.2 L291.106979,54.3 L280.706979,54.3 C280.606979,45.3 279.706979,33.4 279.706979,33.4 C279.606979,33.4 310.906979,28.3 311.606979,29 C311.906979,29.8 314.606979,35.2 314.606979,35.2 C314.606979,35.2 318.706979,29 333.106979,29 C346.106979,29 365.406979,37.5 365.406979,66.6 C365.406979,96 348.306979,102.7 333.906979,102.7 C321.906979,102.7 317.506979,98.2 317.506979,98.2 L317.506979,112.2 C317.506979,112.2 331.206979,113.8 331.806979,114.2 C332.606979,114.9 332.206979,133.3 332.406979,133.3 C332.706979,133.3 281.206979,133.6 281.406979,133.3 L280.606979,114.1 L291.206979,113.2 Z M330.106979,80.9 C336.906979,80.9 340.006979,75.5 340.006979,66.1 C340.006979,56.8 336.206979,51.8 330.706979,51.8 C324.606979,51.8 320.806979,57 320.806979,65.9 C320.706979,74.4 324.506979,80.9 330.106979,80.9 Z M100.606979,64.5 C100.606979,37.7 117.806979,29.8 132.206979,29.8 C144.206979,29.8 153.106979,36.9 153.106979,36.9 L153.106979,29.8 C153.106979,29.8 183.006979,28.8 183.006979,29.5 C183.006979,30.2 184.006979,48.3 183.806979,48.3 C183.506979,48.3 173.606979,50.4 173.406979,50.7 C173.006979,51 173.706979,80.5 173.706979,80.5 C173.806979,80.5 185.406979,80.4 185.606979,81.3 C185.906979,82.3 185.906979,101.1 185.306979,101.1 C184.906979,101.1 153.306979,100.5 153.306979,100.1 C153.306979,99.7 151.906979,92.9 151.906979,92.9 C151.906979,92.9 146.306979,102.2 131.906979,102.2 C118.806979,102.2 100.606979,93.6 100.606979,64.5 Z M147.806979,65.2 C147.806979,57.7 143.106979,51.5 137.406979,51.5 C130.306979,51.5 125.706979,56.4 125.706979,64.9 C125.706979,73.1 131.206979,78.3 136.906979,78.3 C143.106979,78.4 147.806979,73.1 147.806979,65.2 Z M0.90697888,82.7 C1.50697888,82.1 11.1069789,81.3 11.1069789,81.3 L9.10697888,23 C9.10697888,23 0.90697888,23.3 0.20697888,22.6 C-0.49302112,21.9 0.80697888,2 0.80697888,2 L41.6069789,2.7 L42.6069789,22.7 L32.7069789,23.7 L33.4069789,39.2 L60.6069789,40.5 L60.3069789,23.1 C60.3069789,23.1 52.1069789,22.3 52.0069789,22.3 C51.9069789,22.3 50.6069789,3 50.6069789,3 L97.0069789,3.4 C97.0069789,3.4 96.6069789,22.7 96.3069789,22.7 C96.0069789,22.7 85.9069789,24.4 85.9069789,24.4 L87.7069789,80.2 L97.4069789,81.3 L97.4069789,101.5 C97.4069789,101.5 53.6069789,102.1 53.6069789,101.8 C53.6069789,101.5 53.2069789,81.2 53.2069789,81.2 L63.1069789,80.2 L62.7069789,61.6 L34.0069789,60.8 C34.0069789,60.8 33.7069789,81.4 34.4069789,81.4 C35.1069789,81.4 43.9069789,80.8 43.9069789,81.8 C43.9069789,82.8 45.9069789,100.4 45.2069789,100.7 C44.5069789,101 1.20697888,100 1.20697888,100 C1.20697888,100 0.40697888,83.3 0.90697888,82.7 Z" id="Shape" fill="white"></path>
            </g>
            <g id="Group">
                <path d="M59.1,87.3 C58.1,90.3 41.1,91.4 39,91.6 C28.8,92.5 12.5,94.1 4.6,85.8 C-2.7,78.2 0.2,65.1 7.5,58.5 C15.1,51.6 25.1,51.9 34.1,53.6 C39.3,54.6 44.4,56.1 49.4,57.9 C51,58.5 66.8,64.8 66.3,66.4 C66.2,66.4 59.1,87.3 59.1,87.3" id="Path" stroke="#5E3883" stroke-width="1.35" fill="#7C4EC4"></path>
                <path d="M35.5,83.1 C29.6,83.7 20.2,84.8 15.7,80 C11.6,75.6 13.3,67.8 17.5,63.8 C22,59.6 26.4,60 31.5,60.9 C34.5,61.4 40.7,63.1 43.3,66.1 C46,69.1 53.6,80.3 35.5,83.1 Z" id="Path" fill="#F5EAD7"></path>
                <path d="M191.8,108.9 C191.9,111.7 207.7,117.5 209.7,118.3 C219.2,122 234.3,127.9 244.2,123.2 C253.4,118.8 254.5,106.8 249.6,99.1 C244.4,91 234.7,88.5 225.7,87.3 C220.5,86.6 215.1,86.5 209.9,86.7 C208.2,86.8 191.3,87.6 191.3,89.1 L191.8,108.9" id="Path" stroke="#5E3883" stroke-width="1.35" fill="#7C4EC4"></path>
                <path d="M215.6,112 C221.1,114.2 229.7,117.8 235.4,115 C240.7,112.4 241.3,105.3 238.4,100.7 C235.4,95.9 231.1,94.9 225.9,94.2 C222.9,93.8 216.5,93.5 213.1,95.3 C209.7,97.1 199.1,104.6 215.6,112 Z" id="Path" fill="#F5EAD7"></path>
                <path d="M93.2,49.9 C93.5,49.7 82.7,32.6 88.2,19.3 C90.7,13.8 99.2,9.2 98.5,4.1 C97,-2.5 83.3,1.3 79.6,2.8 C59,11.1 46.8,44 60.9,73.3 C60.8,73.4 93.2,49.9 93.2,49.9" id="Path" stroke="#7B7C7C" stroke-width="1.35" fill="#CDCFD0"></path>
                <path d="M86.1,46.6 C76.1,17.8 91.5,7.6 91.5,7.6 C70,14.9 79.8,48.9 79.8,48.9 C79.8,48.9 86.1,46.6 86.1,46.6 Z" id="Path" fill="#FFFFFF"></path>
                <path d="M192.7,39.9 C193.1,33.8 187.8,25.8 190.7,21.7 C195.2,16.5 205.4,26.4 208,29.5 C222.3,46.5 217.5,81.3 191.2,100.4 C191.2,100.4 173.7,64.5 173.7,64.5 C173.6,64.1 191.2,54.2 192.7,39.9 Z" id="Path" stroke="#7B7C7C" stroke-width="1.35" fill="#CDCFD0"></path>
                <path d="M181.6,64.9 C204.1,44.2 195.2,28 195.2,28 C210.7,44.6 186.1,69.9 186.1,69.9 C186.1,69.9 181.6,64.9 181.6,64.9 Z" id="Path" fill="#FFFFFF"></path>
                <path d="M48.5,112.2 C48.5,112.2 41.3,36.7 109.1,42.6 L164.1,53.1 C164.1,53.1 210.1,65.5 196.3,132.8 C196.3,132.8 127.7,172.4 48.6,111.5" id="Path" stroke="#5E3883" stroke-width="1.35" fill="#7C4EC4"></path>
                <path d="M70.2,107.6 C70.2,107.6 70.3,69.2 91,72.6 C118.9,77.1 102.8,122.8 102.8,122.8 L70.2,107.6 Z" id="Path" fill="#FFFFFF"></path>
                <path d="M90.6,120.7 C82.8,120.8 76.4,111.8 76.2,100.5 C76,89.2 82.2,80 90,79.8 C97.8,79.7 104.2,88.7 104.4,100 C104.5,111.3 98.3,120.5 90.6,120.7 Z" id="Path" fill="#231F20"></path>
                <path d="M95.1,94 C95.1,96.4 93.2,98.3 90.8,98.3 C88.4,98.3 86.5,96.4 86.5,94 C86.5,91.6 88.4,89.7 90.8,89.7 C93.2,89.7 95.1,91.7 95.1,94" id="Path" fill="#FFFFFF"></path>
                <path d="M175.5,123.3 C175.5,123.3 188.9,90.7 168.5,85.8 C138.8,78.8 137.6,129.5 137.6,129.5 C137.6,129.5 175.5,123.3 175.5,123.3 Z" id="Path" fill="#FFFFFF"></path>
                <path d="M151.7,130.7 C158.9,133.6 168.1,127.4 172.3,116.9 C176.5,106.4 174,95.6 166.7,92.7 C159.5,89.8 150.3,96 146.1,106.5 C142,117 144.5,127.8 151.7,130.7 Z" id="Path" fill="#231F20"></path>
                <path d="M165.5,104.8 C165.6,107.2 163.7,109.2 161.3,109.2 C158.9,109.3 156.9,107.4 156.9,105 C156.8,102.6 158.7,100.6 161.1,100.6 C163.5,100.6 165.5,102.4 165.5,104.8" id="Path" fill="#FFFFFF"></path>
                <path d="M101.8,225.1 C225.5,241 224.9,136.9 188.8,124 C168.2,116.6 148.7,133.6 119.1,127.7 C90.1,121.9 79.2,101 52.6,106 C9,114.3 9,213.1 101.8,225.1 Z" id="Path" stroke="#938C81" stroke-width="1.35" fill="#F5EAD7"></path>
                <path d="M160.8,156.3 C154.8,159.2 149.1,157.9 148.1,153.4 C147.1,148.9 151.1,143 157.1,140.1 C163.1,137.2 168.8,138.5 169.8,143 C170.8,147.5 166.8,153.4 160.8,156.3" id="Path" fill="#7C4EC4"></path>
                <path d="M175.9,139.4 C175.9,139.4 179.6,149.1 157.9,157.3 C157.9,157.3 153.3,156.1 149,151.3 C147.7,142.8 168.1,128.1 175.9,139.4 Z" id="Path" fill="#7C4EC4" opacity="0.4"></path>
                <path d="M90.2,135.2 C93.4,141 92.5,146.8 88.1,148.1 C83.7,149.4 77.5,145.8 74.3,140 C71.1,134.2 72,128.4 76.4,127.1 C80.7,125.8 86.9,129.4 90.2,135.2" id="Path" fill="#7C4EC4"></path>
                <path d="M75.9,142.7 C70.5,137.1 64.1,130 68.5,124.3 C68.5,124.3 80.6,113.6 91.7,140.2" id="Path" fill="#7C4EC4" opacity="0.4"></path>
                <path d="M186.1,181.3 C178.2,189.2 167.8,191.7 162.9,186.8 C158,181.9 160.5,171.5 168.4,163.6 C176.3,155.7 186.7,153.2 191.6,158.1 C196.5,163 194.1,173.4 186.1,181.3" id="Path" fill="#7C4EC4" opacity="0.4"></path>
                <path d="M129.2,55.2 C129.2,55.2 110.9,57.4 109.6,71.2 C109.6,71.2 101.2,56.4 117.3,52.4 C117.3,52.4 105.4,46.8 95.7,52.7 C95.7,52.7 102,40.7 118.3,43.8 C116.3,35.8 106,32.5 106,32.5 C106,32.5 117.7,29.7 128.3,40.8 C128.3,40.8 128.5,36.5 132.7,33.3 C132.7,33.3 136.7,36.6 136.7,42 C136.7,42 149.9,34.3 161,45.5 C161,45.5 148.4,41.9 144.6,46.5 C144.6,46.5 163.5,47.8 167,61.8 C167,61.8 150.2,50 142.3,53.6 C154.8,58.2 151.6,71.1 151.6,71.1 C151.6,71.1 146.4,57.2 129.2,55.2 Z" id="Path" stroke="#5E3883" stroke-width="1.35" fill="#7C4EC4"></path>
                <path d="M73.3,178.8 L75.7,177.3 C75.7,177.3 84.6,197.4 108.6,200.8 C134.3,204.4 152.9,189.7 152.9,189.7 L154.7,191.7 C154.7,191.7 135.3,208 108.4,203.7 C81.4,199.4 73.3,178.8 73.3,178.8 Z M157.2,194.3 L157,194.3 C151.7,193.1 150,188.2 149.9,188 C149.6,187.3 150,186.5 150.8,186.3 C151.5,186.1 152.3,186.5 152.6,187.2 C152.7,187.4 154,190.9 157.6,191.7 C158.3,191.9 158.8,192.6 158.7,193.3 C158.5,193.9 157.9,194.3 157.2,194.3 Z" id="Shape" fill="#231F20" fill-rule="nonzero"></path>
                <path d="M45.6,162.6 C52.1,171.7 62.9,175.6 68.5,171.6 C74.1,167.6 74.1,155.4 67.6,146.3 C61.1,137.2 50.5,134.5 44.8,138.6 C39.2,142.6 39.1,153.5 45.6,162.6" id="Path" fill="#7C4EC4" opacity="0.4"></path>
                <path d="M70.4,180.7 L70.6,180.7 C76,180.7 78.6,176.3 78.7,176.1 C79.1,175.5 78.8,174.6 78.2,174.2 C77.5,173.8 76.7,174 76.3,174.7 C76.2,174.9 74.3,178 70.5,177.9 C69.7,177.9 69.1,178.5 69.2,179.3 C69.1,180 69.7,180.6 70.4,180.7" id="Path" fill="#231F20"></path>
            </g>
        </g>
    </g>
</svg>